<svg width="2180" height="1767" viewBox="0 0 2180 1767" xmlns="http://www.w3.org/2000/svg"><g transform="translate(.2 .4)" fill="none" fill-rule="evenodd"><path d="M45.2,0 L2134,0 C2159,0 2179.2,20.2 2179.2,45.2 L2179.2,1720.7 C2179.2,1745.7 2159,1765.9 2134,1765.9 L45.2,1765.9 C20.2,1765.9 0,1745.7 0,1720.7 L0,45.2 C0,20.2 20.3,0 45.2,0 Z" fill="#002E51" fill-rule="nonzero"/><path d="M45.2,1765.9 C20.2,1765.9 0,1745.7 0,1720.7 L0,45.2 C0,20.2 20.2,0 45.2,0 L2134,0 C2159,0 2179.2,20.2 2179.2,45.2 L45.2,1765.9 Z" fill="#003C68" fill-rule="nonzero"/><path d="M199.5 1021.7 723.4 1021.7C741.1 1021.7 755.4 1036 755.4 1053.7L755.4 1577.6C755.4 1595.3 741.1 1609.6 723.4 1609.6L199.5 1609.6C181.8 1609.6 167.5 1595.3 167.5 1577.6L167.5 1053.7C167.5 1036.1 181.8 1021.7 199.5 1021.7ZM218.3 497 1957.1 497C1985.1 497 2007.9 519.7 2007.9 547.8L2007.9 918.8C2007.9 946.8 1985.2 969.6 1957.1 969.6L218.3 969.6C190.3 969.6 167.5 946.9 167.5 918.8L167.5 547.8C167.5 519.7 190.2 497 218.3 497ZM825.7 1021.7 1349.6 1021.7C1367.3 1021.7 1381.6 1036 1381.6 1053.7L1381.6 1577.6C1381.6 1595.3 1367.3 1609.6 1349.6 1609.6L825.7 1609.6C808 1609.6 793.7 1595.3 793.7 1577.6L793.7 1053.7C793.7 1036.1 808 1021.7 825.7 1021.7ZM1451.8 1021.7 1975.8 1021.7C1993.5 1021.7 2007.8 1036 2007.8 1053.7L2007.8 1577.6C2007.8 1595.3 1993.5 1609.6 1975.8 1609.6L1451.8 1609.6C1434.1 1609.6 1419.8 1595.3 1419.8 1577.6L1419.8 1053.7C1419.8 1036.1 1434.2 1021.7 1451.8 1021.7Z" stroke="#FFF" stroke-width="9.13" fill="#FFF" fill-rule="nonzero"/><path d="M173.8,176 L556,176 C562.5,176 567.7,181.2 567.7,187.7 L567.7,429.9 C567.7,436.4 562.5,441.6 556,441.6 L173.8,441.6 C167.3,441.6 162.1,436.4 162.1,429.9 L162.1,187.7 C162.1,181.2 167.3,176 173.8,176 Z" fill="#0066B2" fill-rule="nonzero"/><path d="M653.8,176 L1036,176 C1042.5,176 1047.7,181.2 1047.7,187.7 L1047.7,429.9 C1047.7,436.4 1042.5,441.6 1036,441.6 L653.8,441.6 C647.3,441.6 642.1,436.4 642.1,429.9 L642.1,187.7 C642.1,181.2 647.3,176 653.8,176 Z" fill="#FFF" fill-rule="nonzero"/><path d="M1133.8,176 L1516,176 C1522.5,176 1527.7,181.2 1527.7,187.7 L1527.7,429.9 C1527.7,436.4 1522.5,441.6 1516,441.6 L1133.8,441.6 C1127.3,441.6 1122.1,436.4 1122.1,429.9 L1122.1,187.7 C1122.1,181.2 1127.3,176 1133.8,176 Z" fill="#0066B2" fill-rule="nonzero"/><path d="M1613.8 176 1996 176C2002.5 176 2007.7 181.2 2007.7 187.7L2007.7 429.9C2007.7 436.4 2002.5 441.6 1996 441.6L1613.8 441.6C1607.3 441.6 1602.1 436.4 1602.1 429.9L1602.1 187.7C1602.1 181.2 1607.3 176 1613.8 176ZM284.7 243.6 439.8 243.6C442.9 243.6 445.4 246.1 445.4 249.2L445.4 249.8C445.4 252.9 442.9 255.4 439.8 255.4L284.7 255.4C281.6 255.4 279.1 252.9 279.1 249.8L279.1 249.2C279.2 246.1 281.6 243.6 284.7 243.6ZM253.4 303 476.6 303C479.7 303 482.2 305.5 482.2 308.6L482.2 309.2C482.2 312.3 479.7 314.8 476.6 314.8L253.4 314.8C250.3 314.8 247.8 312.3 247.8 309.2L247.8 308.6C247.8 305.5 250.3 303 253.4 303ZM298 361.4 426.5 361.4C429.6 361.4 432.1 363.9 432.1 367L432.1 367.6C432.1 370.7 429.6 373.2 426.5 373.2L298 373.2C294.9 373.2 292.4 370.7 292.4 367.6L292.4 367C292.5 363.9 294.9 361.4 298 361.4ZM1244.7 243.6 1399.8 243.6C1402.9 243.6 1405.4 246.1 1405.4 249.2L1405.4 249.8C1405.4 252.9 1402.9 255.4 1399.8 255.4L1244.7 255.4C1241.6 255.4 1239.1 252.9 1239.1 249.8L1239.1 249.2C1239.1 246.1 1241.6 243.6 1244.7 243.6ZM1213.4 303 1436.5 303C1439.6 303 1442.1 305.5 1442.1 308.6L1442.1 309.2C1442.1 312.3 1439.6 314.8 1436.5 314.8L1213.4 314.8C1210.3 314.8 1207.8 312.3 1207.8 309.2L1207.8 308.6C1207.8 305.5 1210.3 303 1213.4 303ZM1258 361.4 1386.5 361.4C1389.6 361.4 1392.1 363.9 1392.1 367L1392.1 367.6C1392.1 370.7 1389.6 373.2 1386.5 373.2L1258 373.2C1254.9 373.2 1252.4 370.7 1252.4 367.6L1252.4 367C1252.5 363.9 1254.9 361.4 1258 361.4Z" fill="#FFF" fill-rule="nonzero"/><path d="M1724.7 243.6 1879.8 243.6C1882.9 243.6 1885.4 246.1 1885.4 249.2L1885.4 249.8C1885.4 252.9 1882.9 255.4 1879.8 255.4L1724.7 255.4C1721.6 255.4 1719.1 252.9 1719.1 249.8L1719.1 249.2C1719.1 246.1 1721.6 243.6 1724.7 243.6ZM1693.3 303 1916.4 303C1919.5 303 1922 305.5 1922 308.6L1922 309.2C1922 312.3 1919.5 314.8 1916.4 314.8L1693.3 314.8C1690.2 314.8 1687.7 312.3 1687.7 309.2L1687.7 308.6C1687.8 305.5 1690.3 303 1693.3 303ZM1738 361.4 1866.5 361.4C1869.6 361.4 1872.1 363.9 1872.1 367L1872.1 367.6C1872.1 370.7 1869.6 373.2 1866.5 373.2L1738 373.2C1734.9 373.2 1732.4 370.7 1732.4 367.6L1732.4 367C1732.4 363.9 1734.9 361.4 1738 361.4ZM767.4 303 922.5 303C925.6 303 928.1 305.5 928.1 308.6L928.1 309.2C928.1 312.3 925.6 314.8 922.5 314.8L767.4 314.8C764.3 314.8 761.8 312.3 761.8 309.2L761.8 308.6C761.8 305.5 764.3 303 767.4 303ZM738.7 244.5 961.8 244.5C964.9 244.5 967.4 247 967.4 250.1L967.4 250.7C967.4 253.8 964.9 256.3 961.8 256.3L738.7 256.3C735.6 256.3 733.1 253.8 733.1 250.7L733.1 250.1C733.2 247 735.7 244.5 738.7 244.5ZM729.3 361.4 971.2 361.4C974.4 361.4 977.1 364 977.1 367.3L977.1 367.3C977.1 370.5 974.5 373.2 971.2 373.2L729.3 373.2C726.1 373.2 723.4 370.6 723.4 367.3L723.4 367.3C723.5 364.1 726.1 361.4 729.3 361.4Z" fill="#003E6D" fill-rule="nonzero"/><circle fill="#003054" fill-rule="nonzero" cx="461.5" cy="1315.7" r="211"/><path d="M461.5,1315.7 L461.5,1104.7 C577.3,1104.7 672.5,1199.9 672.5,1315.7 C672.5,1431.5 577.3,1526.7 461.5,1526.7 C390.3,1526.7 324,1490.8 285,1431.3 L461.5,1315.7 Z" fill="#008AFF" fill-rule="nonzero"/><circle stroke="#FFF" stroke-width="9.13" fill="#FFF" fill-rule="nonzero" cx="461.5" cy="1315.7" r="118.1"/><circle fill="#003054" fill-rule="nonzero" cx="1087.6" cy="1315.7" r="211"/><path d="M1087.6,1315.7 L1087.6,1104.7 C1203.4,1104.7 1298.6,1199.9 1298.6,1315.7 C1298.6,1431.5 1203.4,1526.7 1087.6,1526.7 C971.8,1526.7 876.6,1431.5 876.6,1315.7 C876.6,1271.3 890.6,1228.1 916.6,1192.1 L1087.6,1315.7 Z" fill="#008AFF" fill-rule="nonzero"/><circle stroke="#FFF" stroke-width="9.13" fill="#FFF" fill-rule="nonzero" cx="1087.6" cy="1315.7" r="118.1"/><circle fill="#003054" fill-rule="nonzero" cx="1717.1" cy="1315.7" r="211"/><path d="M1717.1,1315.7 L1717.1,1104.7 C1832.9,1104.7 1928.1,1199.9 1928.1,1315.7 C1928.1,1431.5 1832.9,1526.7 1717.1,1526.7 C1698.3,1526.7 1679.6,1524.2 1661.5,1519.3 L1717.1,1315.7 Z" fill="#008AFF" fill-rule="nonzero"/><circle stroke="#FFF" stroke-width="9.13" fill="#FFF" fill-rule="nonzero" cx="1717.1" cy="1315.7" r="118.1"/><polyline stroke="#003156" stroke-width="13.12" points="1151.1 734.2 1269.6 760.6 1323.4 707.9 1466 695.9 1568.3 760.6 1651.7 746.2 1719 728.2 1770.1 676.8 1882.1 695.9 1942 730.1"/><polyline stroke="#008AFF" stroke-width="14.16" points="1151.1 832.4 1309.9 832.4 1503.7 818 1597.9 825.2 1858.9 832.4 1942.3 832.4"/><polyline stroke="#BCBEC0" stroke-width="11.25" points="239 571.9 239 905.6 1021.9 905.6"/><polyline stroke="#BCBEC0" stroke-width="11.25" points="1151 571.9 1151 905.6 1938 905.6"/><polyline stroke="#008AFF" stroke-width="14.16" points="241.7 869 386 853.1 476.9 853.1 522.4 869 712.2 824 795 846.5 910 846.5 1030.3 802.9"/><polyline stroke="#003156" stroke-width="13.12" points="241.7 652.1 292.4 697.1 351.3 697.1 426.1 674.6 493 697.1 549.1 743.4 613.3 728.8 658.7 743.4 755 789.7 811.1 789.7 883.3 697.1 952.8 720.9 1030.3 720.9"/></g></svg>